<svg xmlns="http://www.w3.org/2000/svg" xmlns:xlink="http://www.w3.org/1999/xlink" width="40" zoomAndPan="magnify" viewBox="0 0 30 30.000001" height="40" preserveAspectRatio="xMidYMid meet" version="1.0"><defs><clipPath id="22fdc997e1"><path d="M 1.933594 1.371094 L 28.066406 1.371094 L 28.066406 27.703125 L 1.933594 27.703125 Z M 1.933594 1.371094 " clip-rule="nonzero"/></clipPath><clipPath id="193e069251"><path d="M 15 1.371094 C 7.785156 1.371094 1.933594 7.257812 1.933594 14.515625 C 1.933594 21.777344 7.785156 27.660156 15 27.660156 C 22.214844 27.660156 28.066406 21.777344 28.066406 14.515625 C 28.066406 7.257812 22.214844 1.371094 15 1.371094 Z M 15 1.371094 " clip-rule="nonzero"/></clipPath><clipPath id="eac88884eb"><path d="M 0.933594 0.371094 L 27.066406 0.371094 L 27.066406 26.703125 L 0.933594 26.703125 Z M 0.933594 0.371094 " clip-rule="nonzero"/></clipPath><clipPath id="0da5d0f9ea"><path d="M 14 0.371094 C 6.785156 0.371094 0.933594 6.257812 0.933594 13.515625 C 0.933594 20.777344 6.785156 26.660156 14 26.660156 C 21.214844 26.660156 27.066406 20.777344 27.066406 13.515625 C 27.066406 6.257812 21.214844 0.371094 14 0.371094 Z M 14 0.371094 " clip-rule="nonzero"/></clipPath><clipPath id="b79c621fd1"><rect x="0" width="28" y="0" height="27"/></clipPath><clipPath id="8f2368b705"><path d="M 14.691406 1.371094 L 28.066406 1.371094 L 28.066406 14.515625 L 14.691406 14.515625 Z M 14.691406 1.371094 " clip-rule="nonzero"/></clipPath><clipPath id="bb10b08084"><path d="M 0.691406 0.371094 L 14.066406 0.371094 L 14.066406 13.515625 L 0.691406 13.515625 Z M 0.691406 0.371094 " clip-rule="nonzero"/></clipPath><clipPath id="7b007f199b"><rect x="0" width="15" y="0" height="14"/></clipPath><clipPath id="5453d62975"><path d="M 2.351562 1.789062 L 27.648438 1.789062 L 27.648438 27.285156 L 2.351562 27.285156 Z M 2.351562 1.789062 " clip-rule="nonzero"/></clipPath><clipPath id="6f22e69132"><path d="M 15 1.789062 C 8.011719 1.789062 2.351562 7.484375 2.351562 14.515625 C 2.351562 21.546875 8.011719 27.246094 15 27.246094 C 21.988281 27.246094 27.648438 21.546875 27.648438 14.515625 C 27.648438 7.484375 21.988281 1.789062 15 1.789062 Z M 15 1.789062 " clip-rule="nonzero"/></clipPath><clipPath id="d781cf9d05"><path d="M 0.351562 0.789062 L 25.648438 0.789062 L 25.648438 26.285156 L 0.351562 26.285156 Z M 0.351562 0.789062 " clip-rule="nonzero"/></clipPath><clipPath id="6851de89c6"><path d="M 13 0.789062 C 6.011719 0.789062 0.351562 6.484375 0.351562 13.515625 C 0.351562 20.546875 6.011719 26.246094 13 26.246094 C 19.988281 26.246094 25.648438 20.546875 25.648438 13.515625 C 25.648438 6.484375 19.988281 0.789062 13 0.789062 Z M 13 0.789062 " clip-rule="nonzero"/></clipPath><clipPath id="a846d64aef"><rect x="0" width="26" y="0" height="27"/></clipPath><clipPath id="5c40fad90f"><path d="M 14.699219 1.789062 L 27.648438 1.789062 L 27.648438 14.515625 L 14.699219 14.515625 Z M 14.699219 1.789062 " clip-rule="nonzero"/></clipPath><clipPath id="6d2e34a4c2"><path d="M 0.699219 0.789062 L 13.648438 0.789062 L 13.648438 13.515625 L 0.699219 13.515625 Z M 0.699219 0.789062 " clip-rule="nonzero"/></clipPath><clipPath id="5f757c3ffc"><rect x="0" width="14" y="0" height="14"/></clipPath><clipPath id="9c7d9b6565"><path d="M 6.207031 5.648438 L 24.355469 5.648438 L 24.355469 23.792969 L 6.207031 23.792969 Z M 6.207031 5.648438 " clip-rule="nonzero"/></clipPath><clipPath id="4d6b29f6e2"><path d="M 10.457031 8.386719 L 19.890625 8.386719 L 19.890625 20.726562 L 10.457031 20.726562 Z M 10.457031 8.386719 " clip-rule="nonzero"/></clipPath><clipPath id="875cd839d4"><path d="M 10.457031 8.371094 L 19.890625 8.371094 L 19.890625 20.710938 L 10.457031 20.710938 Z M 10.457031 8.371094 " clip-rule="nonzero"/></clipPath></defs><g clip-path="url(#22fdc997e1)"><g clip-path="url(#193e069251)"><g transform="matrix(1, 0, 0, 1, 1, 1)"><g clip-path="url(#b79c621fd1)"><g clip-path="url(#eac88884eb)"><g clip-path="url(#0da5d0f9ea)"><path fill="#f6b81a" d="M 0.933594 0.371094 L 27.066406 0.371094 L 27.066406 26.703125 L 0.933594 26.703125 Z M 0.933594 0.371094 " fill-opacity="1" fill-rule="nonzero"/></g></g></g></g></g></g><g clip-path="url(#8f2368b705)"><g transform="matrix(1, 0, 0, 1, 14, 1)"><g clip-path="url(#7b007f199b)"><g clip-path="url(#bb10b08084)"><path fill="#e74c3c" d="M 0.691406 0.371094 L 14.042969 0.371094 L 14.042969 13.515625 L 0.691406 13.515625 Z M 0.691406 0.371094 " fill-opacity="1" fill-rule="nonzero"/></g></g></g></g><g clip-path="url(#5453d62975)"><g clip-path="url(#6f22e69132)"><g transform="matrix(1, 0, 0, 1, 2, 1)"><g clip-path="url(#a846d64aef)"><g clip-path="url(#d781cf9d05)"><g clip-path="url(#6851de89c6)"><path fill="#231f20" d="M 0.351562 0.789062 L 25.648438 0.789062 L 25.648438 26.285156 L 0.351562 26.285156 Z M 0.351562 0.789062 " fill-opacity="1" fill-rule="nonzero"/></g></g></g></g></g></g><g clip-path="url(#5c40fad90f)"><g transform="matrix(1, 0, 0, 1, 14, 1)"><g clip-path="url(#5f757c3ffc)"><g clip-path="url(#6d2e34a4c2)"><path fill="#231f20" d="M 0.699219 0.789062 L 13.628906 0.789062 L 13.628906 13.515625 L 0.699219 13.515625 Z M 0.699219 0.789062 " fill-opacity="1" fill-rule="nonzero"/></g></g></g></g><g clip-path="url(#9c7d9b6565)"><path fill="#ecf0f1" d="M 15.375 23.722656 L 15.113281 23.722656 C 10.199219 23.722656 6.207031 19.734375 6.207031 14.8125 L 6.207031 14.554688 C 6.207031 9.636719 10.199219 5.648438 15.117188 5.648438 L 24.242188 5.648438 C 24.265625 5.648438 24.285156 5.667969 24.285156 5.691406 L 24.285156 14.8125 C 24.285156 19.734375 20.296875 23.722656 15.375 23.722656 Z M 15.375 23.722656 " fill-opacity="1" fill-rule="nonzero"/></g><g clip-path="url(#4d6b29f6e2)"><path fill="#231f20" d="M 18.839844 8.390625 L 11.511719 8.390625 C 10.929688 8.390625 10.457031 8.851562 10.457031 9.421875 L 10.457031 18.90625 C 10.457031 19.171875 10.625 19.402344 10.863281 19.496094 L 10.863281 20.089844 C 10.863281 20.441406 11.152344 20.726562 11.511719 20.726562 L 18.839844 20.726562 C 19.195312 20.726562 19.484375 20.441406 19.484375 20.089844 L 19.484375 19.496094 C 19.722656 19.402344 19.890625 19.171875 19.890625 18.90625 L 19.890625 9.421875 C 19.890625 8.851562 19.417969 8.390625 18.839844 8.390625 Z M 19.414062 18.90625 C 19.414062 18.988281 19.335938 19.058594 19.246094 19.058594 L 11.101562 19.058594 C 11.011719 19.058594 10.9375 18.988281 10.9375 18.90625 L 10.9375 9.421875 C 10.9375 9.117188 11.195312 8.871094 11.511719 8.871094 L 18.839844 8.871094 C 19.15625 8.871094 19.414062 9.117188 19.414062 9.421875 Z M 19.414062 18.90625 " fill-opacity="1" fill-rule="nonzero"/></g><path fill="#231f20" d="M 17.617188 10.757812 L 12.730469 10.757812 C 12.148438 10.757812 11.675781 11.222656 11.675781 11.789062 L 11.675781 17.71875 C 11.675781 17.851562 11.785156 17.960938 11.917969 17.960938 L 18.429688 17.960938 C 18.5625 17.960938 18.671875 17.851562 18.671875 17.71875 L 18.671875 11.789062 C 18.671875 11.222656 18.199219 10.757812 17.617188 10.757812 Z M 18.191406 17.476562 L 12.15625 17.476562 L 12.15625 13.613281 L 12.898438 13.613281 L 12.898438 14.558594 C 12.898438 14.691406 13.007812 14.796875 13.140625 14.796875 L 13.507812 14.796875 L 13.507812 14.953125 C 13.507812 15.085938 13.617188 15.195312 13.75 15.195312 C 13.882812 15.195312 13.988281 15.085938 13.988281 14.953125 L 13.988281 14.796875 L 14.359375 14.796875 C 14.492188 14.796875 14.597656 14.691406 14.597656 14.558594 L 14.597656 13.613281 L 15.75 13.613281 L 15.75 14.558594 C 15.75 14.691406 15.855469 14.796875 15.988281 14.796875 L 16.359375 14.796875 L 16.359375 14.953125 C 16.359375 15.085938 16.464844 15.195312 16.597656 15.195312 C 16.730469 15.195312 16.839844 15.085938 16.839844 14.953125 L 16.839844 14.796875 L 17.210938 14.796875 C 17.34375 14.796875 17.449219 14.691406 17.449219 14.558594 L 17.449219 13.613281 L 18.191406 13.613281 Z M 18.191406 13.132812 L 12.15625 13.132812 L 12.15625 11.789062 C 12.15625 11.488281 12.414062 11.242188 12.730469 11.242188 L 17.617188 11.242188 C 17.933594 11.242188 18.191406 11.488281 18.191406 11.789062 Z M 18.191406 13.132812 " fill-opacity="1" fill-rule="nonzero"/><path fill="#231f20" d="M 13.6875 11.675781 C 13.421875 11.675781 13.207031 11.890625 13.207031 12.15625 C 13.207031 12.421875 13.421875 12.636719 13.6875 12.636719 C 13.953125 12.636719 14.167969 12.421875 14.167969 12.15625 C 14.167969 11.890625 13.953125 11.675781 13.6875 11.675781 Z M 13.6875 11.675781 " fill-opacity="1" fill-rule="nonzero"/><path fill="#231f20" d="M 16.660156 11.675781 C 16.394531 11.675781 16.179688 11.890625 16.179688 12.15625 C 16.179688 12.421875 16.394531 12.636719 16.660156 12.636719 C 16.925781 12.636719 17.140625 12.421875 17.140625 12.15625 C 17.140625 11.890625 16.925781 11.675781 16.660156 11.675781 Z M 16.660156 11.675781 " fill-opacity="1" fill-rule="nonzero"/><g clip-path="url(#875cd839d4)"><path fill="#e74c3c" d="M 18.96875 8.371094 L 11.527344 8.371094 C 10.9375 8.371094 10.457031 8.839844 10.457031 9.414062 L 10.457031 18.992188 C 10.457031 19.265625 10.628906 19.496094 10.871094 19.589844 L 10.871094 20.191406 C 10.871094 20.546875 11.164062 20.835938 11.527344 20.835938 L 18.96875 20.835938 C 19.332031 20.835938 19.625 20.546875 19.625 20.191406 L 19.625 19.589844 C 19.867188 19.496094 20.039062 19.265625 20.039062 18.992188 L 20.039062 9.414062 C 20.039062 8.839844 19.558594 8.371094 18.96875 8.371094 Z M 19.550781 18.992188 C 19.550781 19.078125 19.476562 19.148438 19.382812 19.148438 L 11.113281 19.148438 C 11.019531 19.148438 10.945312 19.078125 10.945312 18.992188 L 10.945312 9.414062 C 10.945312 9.105469 11.207031 8.859375 11.527344 8.859375 L 18.96875 8.859375 C 19.289062 8.859375 19.550781 9.105469 19.550781 9.414062 Z M 19.550781 18.992188 " fill-opacity="1" fill-rule="nonzero"/></g><path fill="#e74c3c" d="M 17.726562 10.765625 L 12.765625 10.765625 C 12.175781 10.765625 11.699219 11.230469 11.699219 11.808594 L 11.699219 17.796875 C 11.699219 17.929688 11.804688 18.039062 11.941406 18.039062 L 18.554688 18.039062 C 18.691406 18.039062 18.796875 17.929688 18.796875 17.796875 L 18.796875 11.808594 C 18.796875 11.230469 18.320312 10.765625 17.726562 10.765625 Z M 18.3125 17.554688 L 12.183594 17.554688 L 12.183594 13.648438 L 12.9375 13.648438 L 12.9375 14.601562 C 12.9375 14.738281 13.046875 14.847656 13.179688 14.847656 L 13.558594 14.847656 L 13.558594 15 C 13.558594 15.136719 13.667969 15.246094 13.800781 15.246094 C 13.933594 15.246094 14.042969 15.136719 14.042969 15 L 14.042969 14.847656 L 14.421875 14.847656 C 14.554688 14.847656 14.664062 14.738281 14.664062 14.601562 L 14.664062 13.648438 L 15.832031 13.648438 L 15.832031 14.601562 C 15.832031 14.738281 15.941406 14.847656 16.074219 14.847656 L 16.453125 14.847656 L 16.453125 15 C 16.453125 15.136719 16.558594 15.246094 16.695312 15.246094 C 16.828125 15.246094 16.9375 15.136719 16.9375 15 L 16.9375 14.847656 L 17.316406 14.847656 C 17.449219 14.847656 17.558594 14.738281 17.558594 14.601562 L 17.558594 13.648438 L 18.3125 13.648438 Z M 18.3125 13.160156 L 12.183594 13.160156 L 12.183594 11.808594 C 12.183594 11.5 12.445312 11.25 12.765625 11.25 L 17.726562 11.25 C 18.050781 11.25 18.3125 11.5 18.3125 11.808594 Z M 18.3125 13.160156 " fill-opacity="1" fill-rule="nonzero"/><path fill="#e74c3c" d="M 13.738281 11.691406 C 13.46875 11.691406 13.25 11.910156 13.25 12.175781 C 13.25 12.445312 13.46875 12.664062 13.738281 12.664062 C 14.007812 12.664062 14.226562 12.445312 14.226562 12.175781 C 14.226562 11.910156 14.007812 11.691406 13.738281 11.691406 Z M 13.738281 11.691406 " fill-opacity="1" fill-rule="nonzero"/><path fill="#e74c3c" d="M 16.757812 11.691406 C 16.488281 11.691406 16.269531 11.910156 16.269531 12.175781 C 16.269531 12.445312 16.488281 12.664062 16.757812 12.664062 C 17.027344 12.664062 17.242188 12.445312 17.242188 12.175781 C 17.242188 11.910156 17.027344 11.691406 16.757812 11.691406 Z M 16.757812 11.691406 " fill-opacity="1" fill-rule="nonzero"/></svg>